<svg id="hexagon" enable-background="new 0 0 300 300" height="512" viewBox="0 0 300 300" width="512" xmlns="http://www.w3.org/2000/svg"><path d="m46.001 89.668v120.664l104 60.331 104-60.331v-120.664l-104-60.331z" fill="#2ee52b"/><path d="m150.001 278.663c-1.387 0-2.773-.36-4.014-1.08l-104-60.331c-2.467-1.432-3.986-4.067-3.986-6.92v-120.663c0-2.853 1.519-5.488 3.986-6.92l104-60.332c2.482-1.439 5.546-1.439 8.028 0l104 60.332c2.467 1.432 3.986 4.067 3.986 6.92v120.663c0 2.853-1.519 5.488-3.986 6.92l-104 60.331c-1.241.719-2.628 1.08-4.014 1.08zm-96-72.939 96 55.689 96-55.689v-111.448l-96-55.69-96 55.69z" fill="#5c128d"/><path d="m46.001 89.668 104 180.995 104-180.995z" fill="#f35cd2"/><g fill="#5c128d"><path d="m150.001 278.663c-2.864 0-5.51-1.531-6.937-4.015l-104-180.994c-1.422-2.476-1.417-5.521.012-7.992 1.43-2.472 4.069-3.993 6.924-3.993h208c2.855 0 5.494 1.521 6.924 3.993 1.43 2.471 1.435 5.517.012 7.992l-104 180.994c-1.426 2.484-4.072 4.015-6.935 4.015zm-90.177-180.994 90.177 156.937 90.177-156.937z"/><path d="m150.001 269.337c-4.418 0-8-3.582-8-8v-224c0-4.418 3.582-8 8-8s8 3.582 8 8v224c0 4.418-3.582 8-8 8z"/><path d="m54.008 213.338c-2.752 0-5.431-1.421-6.917-3.97-2.226-3.816-.937-8.715 2.879-10.941l192-112c3.816-2.226 8.715-.937 10.941 2.879s.937 8.715-2.879 10.941l-192 112c-1.268.739-2.655 1.091-4.024 1.091z"/><path d="m245.993 213.338c-1.323 0-2.665-.328-3.901-1.021l-200-112c-3.855-2.159-5.23-7.034-3.071-10.89 2.159-3.854 7.034-5.23 10.889-3.071l200 112c3.855 2.159 5.23 7.034 3.071 10.89-1.467 2.618-4.186 4.092-6.988 4.092z"/></g></svg>