<svg id="hexagon" enable-background="new 0 0 300 300" height="512" viewBox="0 0 300 300" width="512" xmlns="http://www.w3.org/2000/svg"><path d="m150 278.663c-2.864 0-5.51-1.531-6.937-4.015l-104-180.994c-1.422-2.476-1.417-5.521.012-7.992 1.43-2.472 4.069-3.993 6.924-3.993h208c2.855 0 5.494 1.521 6.924 3.993 1.43 2.471 1.435 5.517.012 7.992l-104 180.994c-1.425 2.484-4.071 4.015-6.935 4.015zm-90.177-180.994 90.177 156.936 90.177-156.937h-180.354z" fill="#476afc"/><path d="m258.014 82.749-104-60.332c-2.482-1.439-5.546-1.439-8.028 0l-104 60.332c-2.467 1.431-3.986 4.067-3.986 6.92v120.663c0 2.853 1.519 5.488 3.986 6.92l104 60.331c1.241.72 2.627 1.08 4.014 1.08s2.773-.36 4.014-1.08l104-60.331c2.467-1.432 3.986-4.067 3.986-6.92v-120.663c0-2.853-1.519-5.489-3.986-6.92zm-100.014-39.522 79.232 45.963-79.232 46.219zm-16 94.7-83.063-46.515 83.063-48.185zm-10.079 12.695-77.921 45.453v-89.089zm114.079-48.024v93.569l-81.839-45.83zm-192 102.739.342.586-.342-.199zm88-42.072v93.508l-80.373-46.624zm7.867 98.072h.266l-.133.077zm8.133-96.111 80.297 44.967-80.297 46.58zm87.678 40.685.322-.574v.388z"/></svg>